# xmcd CD database file
#
# Track frame offsets:
#	150
#	20703
#	40876
#	56476
#	81286
#	105598
#	125011
#	146416
#	168466
#	188532
#	209550
#	229603
#	246559
#
# Disc length: 3528 seconds
#
# Revision: 0
# Processed by: cddbd v1.5.1PL2 Copyright (c) Steve Scherf et al.
# Submitted via: CDex 1.51
#
DISCID=b70dc60d
DTITLE=TANGORA - Colorada
DYEAR=2004
DGENRE=Jazz
TTITLE0=Le temps passe
TTITLE1=Lune de miel
TTITLE2=Ode a Ella
TTITLE3=Union libre
TTITLE4=Lolita, fleur creole
TTITLE5=Dolphin dance
TTITLE6=Colorada
TTITLE7=Kulumana
TTITLE8=Moody's mood
TTITLE9=Crepuscule creole
TTITLE10=Senhoras do amazonas
TTITLE11=La matador
TTITLE12=Fous a lier
EXTD=YEAR: 2004
EXTT0=
EXTT1=
EXTT2=
EXTT3=
EXTT4=
EXTT5=
EXTT6=
EXTT7=
EXTT8=
EXTT9=
EXTT10=
EXTT11=
EXTT12=
PLAYORDER=
